%TF.GenerationSoftware,KiCad,Pcbnew,10.0.1*%
%TF.CreationDate,2026-05-19T18:15:14+05:00*%
%TF.ProjectId,STM32,53544d33-322e-46b6-9963-61645f706362,rev?*%
%TF.SameCoordinates,Original*%
%TF.FileFunction,Copper,L1,Top*%
%TF.FilePolarity,Positive*%
%FSLAX46Y46*%
G04 Gerber Fmt 4.6, Leading zero omitted, Abs format (unit mm)*
G04 Created by KiCad (PCBNEW 10.0.1) date 2026-05-19 18:15:14*
%MOMM*%
%LPD*%
G01*
G04 APERTURE LIST*
G04 Aperture macros list*
%AMRoundRect*
0 Rectangle with rounded corners*
0 $1 Rounding radius*
0 $2 $3 $4 $5 $6 $7 $8 $9 X,Y pos of 4 corners*
0 Add a 4 corners polygon primitive as box body*
4,1,4,$2,$3,$4,$5,$6,$7,$8,$9,$2,$3,0*
0 Add four circle primitives for the rounded corners*
1,1,$1+$1,$2,$3*
1,1,$1+$1,$4,$5*
1,1,$1+$1,$6,$7*
1,1,$1+$1,$8,$9*
0 Add four rect primitives between the rounded corners*
20,1,$1+$1,$2,$3,$4,$5,0*
20,1,$1+$1,$4,$5,$6,$7,0*
20,1,$1+$1,$6,$7,$8,$9,0*
20,1,$1+$1,$8,$9,$2,$3,0*%
G04 Aperture macros list end*
%TA.AperFunction,SMDPad,CuDef*%
%ADD10R,0.800000X1.000000*%
%TD*%
%TA.AperFunction,SMDPad,CuDef*%
%ADD11R,1.500000X0.700000*%
%TD*%
%TA.AperFunction,SMDPad,CuDef*%
%ADD12RoundRect,0.140000X0.140000X0.170000X-0.140000X0.170000X-0.140000X-0.170000X0.140000X-0.170000X0*%
%TD*%
%TA.AperFunction,SMDPad,CuDef*%
%ADD13RoundRect,0.135000X-0.185000X0.135000X-0.185000X-0.135000X0.185000X-0.135000X0.185000X0.135000X0*%
%TD*%
%TA.AperFunction,ComponentPad*%
%ADD14R,1.700000X1.700000*%
%TD*%
%TA.AperFunction,ComponentPad*%
%ADD15C,1.700000*%
%TD*%
%TA.AperFunction,SMDPad,CuDef*%
%ADD16RoundRect,0.140000X-0.140000X-0.170000X0.140000X-0.170000X0.140000X0.170000X-0.140000X0.170000X0*%
%TD*%
%TA.AperFunction,SMDPad,CuDef*%
%ADD17RoundRect,0.140000X0.170000X-0.140000X0.170000X0.140000X-0.170000X0.140000X-0.170000X-0.140000X0*%
%TD*%
%TA.AperFunction,SMDPad,CuDef*%
%ADD18RoundRect,0.135000X0.185000X-0.135000X0.185000X0.135000X-0.185000X0.135000X-0.185000X-0.135000X0*%
%TD*%
%TA.AperFunction,SMDPad,CuDef*%
%ADD19RoundRect,0.375000X-0.375000X0.625000X-0.375000X-0.625000X0.375000X-0.625000X0.375000X0.625000X0*%
%TD*%
%TA.AperFunction,SMDPad,CuDef*%
%ADD20RoundRect,0.500000X-1.400000X0.500000X-1.400000X-0.500000X1.400000X-0.500000X1.400000X0.500000X0*%
%TD*%
%TA.AperFunction,SMDPad,CuDef*%
%ADD21RoundRect,0.225000X-0.225000X-0.250000X0.225000X-0.250000X0.225000X0.250000X-0.225000X0.250000X0*%
%TD*%
%TA.AperFunction,SMDPad,CuDef*%
%ADD22RoundRect,0.250000X-0.250000X-0.475000X0.250000X-0.475000X0.250000X0.475000X-0.250000X0.475000X0*%
%TD*%
%TA.AperFunction,SMDPad,CuDef*%
%ADD23RoundRect,0.218750X-0.256250X0.218750X-0.256250X-0.218750X0.256250X-0.218750X0.256250X0.218750X0*%
%TD*%
%TA.AperFunction,SMDPad,CuDef*%
%ADD24RoundRect,0.250000X-0.350000X0.450000X-0.350000X-0.450000X0.350000X-0.450000X0.350000X0.450000X0*%
%TD*%
%TA.AperFunction,SMDPad,CuDef*%
%ADD25RoundRect,0.075000X-0.662500X-0.075000X0.662500X-0.075000X0.662500X0.075000X-0.662500X0.075000X0*%
%TD*%
%TA.AperFunction,SMDPad,CuDef*%
%ADD26RoundRect,0.075000X-0.075000X-0.662500X0.075000X-0.662500X0.075000X0.662500X-0.075000X0.662500X0*%
%TD*%
%TA.AperFunction,SMDPad,CuDef*%
%ADD27RoundRect,0.135000X0.135000X0.185000X-0.135000X0.185000X-0.135000X-0.185000X0.135000X-0.185000X0*%
%TD*%
%TA.AperFunction,SMDPad,CuDef*%
%ADD28RoundRect,0.250000X0.475000X-0.250000X0.475000X0.250000X-0.475000X0.250000X-0.475000X-0.250000X0*%
%TD*%
%TA.AperFunction,SMDPad,CuDef*%
%ADD29RoundRect,0.140000X-0.170000X0.140000X-0.170000X-0.140000X0.170000X-0.140000X0.170000X0.140000X0*%
%TD*%
%TA.AperFunction,SMDPad,CuDef*%
%ADD30RoundRect,0.112500X0.537500X-0.112500X0.537500X0.112500X-0.537500X0.112500X-0.537500X-0.112500X0*%
%TD*%
%TA.AperFunction,ComponentPad*%
%ADD31O,1.800000X1.150000*%
%TD*%
%TA.AperFunction,ComponentPad*%
%ADD32O,2.000000X1.450000*%
%TD*%
%TA.AperFunction,SMDPad,CuDef*%
%ADD33RoundRect,0.135000X-0.135000X-0.185000X0.135000X-0.185000X0.135000X0.185000X-0.135000X0.185000X0*%
%TD*%
%TA.AperFunction,ViaPad*%
%ADD34C,0.600000*%
%TD*%
%TA.AperFunction,Conductor*%
%ADD35C,0.500000*%
%TD*%
%TA.AperFunction,Conductor*%
%ADD36C,0.300000*%
%TD*%
%TA.AperFunction,Conductor*%
%ADD37C,0.200000*%
%TD*%
G04 APERTURE END LIST*
D10*
%TO.P,SW1,*%
%TO.N,*%
X88955000Y-48150000D03*
X86745000Y-48150000D03*
X88955000Y-55450000D03*
X86745000Y-55450000D03*
D11*
%TO.P,SW1,1,A_1*%
%TO.N,GND*%
X89605000Y-49550000D03*
%TO.P,SW1,2,B_2*%
%TO.N,/SW_BOOT0*%
X89605000Y-52550000D03*
%TO.P,SW1,3,C_3*%
%TO.N,+3.3V*%
X89605000Y-54050000D03*
%TD*%
D12*
%TO.P,C9,1*%
%TO.N,+3.3VA*%
X101560000Y-59800000D03*
%TO.P,C9,2*%
%TO.N,GND*%
X100600000Y-59800000D03*
%TD*%
D13*
%TO.P,R3,1*%
%TO.N,+3.3V*%
X121100000Y-51400000D03*
%TO.P,R3,2*%
%TO.N,/USB_D+*%
X121100000Y-52420000D03*
%TD*%
D14*
%TO.P,J2,1,Pin_1_1*%
%TO.N,+3.3V*%
X118520000Y-42600000D03*
D15*
%TO.P,J2,2,Pin_2_2*%
%TO.N,/SWDIO*%
X115980000Y-42600000D03*
%TO.P,J2,3,Pin_3_3*%
%TO.N,/SWCLK*%
X113440000Y-42600000D03*
%TO.P,J2,4,Pin_4_4*%
%TO.N,GND*%
X110900000Y-42600000D03*
%TD*%
D16*
%TO.P,C11,1*%
%TO.N,/NRST*%
X104640000Y-62000000D03*
%TO.P,C11,2*%
%TO.N,GND*%
X105600000Y-62000000D03*
%TD*%
D17*
%TO.P,C13,1*%
%TO.N,/HSE_OUT*%
X99500000Y-55260000D03*
%TO.P,C13,2*%
%TO.N,GND*%
X99500000Y-54300000D03*
%TD*%
%TO.P,C12,1*%
%TO.N,/HSE_IN*%
X99500000Y-53030000D03*
%TO.P,C12,2*%
%TO.N,GND*%
X99500000Y-52070000D03*
%TD*%
D12*
%TO.P,C5,1*%
%TO.N,+3.3V*%
X112300000Y-60900000D03*
%TO.P,C5,2*%
%TO.N,GND*%
X111340000Y-60900000D03*
%TD*%
D18*
%TO.P,R2,1*%
%TO.N,/SW_BOOT0*%
X91700000Y-52200000D03*
%TO.P,R2,2*%
%TO.N,/BOOT0*%
X91700000Y-51180000D03*
%TD*%
D19*
%TO.P,U2,1,GND_1*%
%TO.N,GND*%
X120300000Y-63200000D03*
%TO.P,U2,2,VO_2*%
%TO.N,+3.3V*%
X118000000Y-63200000D03*
D20*
X118000000Y-69500000D03*
D19*
%TO.P,U2,3,VI_3*%
%TO.N,VBUS*%
X115700000Y-63200000D03*
%TD*%
D21*
%TO.P,C3,1*%
%TO.N,+3.3V*%
X105350000Y-47200000D03*
%TO.P,C3,2*%
%TO.N,GND*%
X106900000Y-47200000D03*
%TD*%
D22*
%TO.P,C1,1*%
%TO.N,VBUS*%
X117100000Y-60600000D03*
%TO.P,C1,2*%
%TO.N,GND*%
X119000000Y-60600000D03*
%TD*%
D23*
%TO.P,D1,1,K_1*%
%TO.N,/PWR_LED_K*%
X126200000Y-64625000D03*
%TO.P,D1,2,A_2*%
%TO.N,+3.3V*%
X126200000Y-66200000D03*
%TD*%
%TO.P,FB1,1*%
%TO.N,+3.3VA*%
X103100000Y-60012500D03*
%TO.P,FB1,2*%
%TO.N,+3.3V*%
X103100000Y-61587500D03*
%TD*%
D24*
%TO.P,Y1,1,1_1*%
%TO.N,/HSE_IN*%
X95900000Y-52200000D03*
%TO.P,Y1,2,2_2*%
%TO.N,GND*%
X95900000Y-54400000D03*
%TO.P,Y1,3,3_3*%
%TO.N,/HSE_OUT*%
X97600000Y-54400000D03*
%TO.P,Y1,4,4_4*%
%TO.N,GND*%
X97600000Y-52200000D03*
%TD*%
D12*
%TO.P,C10,1*%
%TO.N,+3.3V*%
X101600000Y-61300000D03*
%TO.P,C10,2*%
%TO.N,GND*%
X100640000Y-61300000D03*
%TD*%
D17*
%TO.P,C8,1*%
%TO.N,+3.3VA*%
X101600000Y-56300000D03*
%TO.P,C8,2*%
%TO.N,GND*%
X101600000Y-55340000D03*
%TD*%
D25*
%TO.P,U1,1,VBAT_1*%
%TO.N,+3.3V*%
X104475000Y-52100000D03*
%TO.P,U1,2,PC13_2*%
%TO.N,unconnected-(U1-PC13-Pad2)*%
X104475000Y-52600000D03*
%TO.P,U1,3,PC14_3*%
%TO.N,unconnected-(U1-PC14-Pad3)*%
X104475000Y-53100000D03*
%TO.P,U1,4,PC15_4*%
%TO.N,unconnected-(U1-PC15-Pad4)*%
X104475000Y-53600000D03*
%TO.P,U1,5,PD0_5*%
%TO.N,/HSE_IN*%
X104475000Y-54100000D03*
%TO.P,U1,6,PD1_6*%
%TO.N,/HSE_OUT*%
X104475000Y-54600000D03*
%TO.P,U1,7,NRST_7*%
%TO.N,/NRST*%
X104475000Y-55100000D03*
%TO.P,U1,8,VSSA_8*%
%TO.N,GND*%
X104475000Y-55600000D03*
%TO.P,U1,9,VDDA_9*%
%TO.N,+3.3VA*%
X104475000Y-56100000D03*
%TO.P,U1,10,PA0_10*%
%TO.N,unconnected-(U1-PA0-Pad10)*%
X104475000Y-56600000D03*
%TO.P,U1,11,PA1_11*%
%TO.N,unconnected-(U1-PA1-Pad11)*%
X104475000Y-57100000D03*
%TO.P,U1,12,PA2_12*%
%TO.N,unconnected-(U1-PA2-Pad12)*%
X104475000Y-57600000D03*
D26*
%TO.P,U1,13,PA3_13*%
%TO.N,unconnected-(U1-PA3-Pad13)*%
X105887500Y-59012500D03*
%TO.P,U1,14,PA4_14*%
%TO.N,unconnected-(U1-PA4-Pad14)*%
X106387500Y-59012500D03*
%TO.P,U1,15,PA5_15*%
%TO.N,unconnected-(U1-PA5-Pad15)*%
X106887500Y-59012500D03*
%TO.P,U1,16,PA6_16*%
%TO.N,unconnected-(U1-PA6-Pad16)*%
X107387500Y-59012500D03*
%TO.P,U1,17,PA7_17*%
%TO.N,unconnected-(U1-PA7-Pad17)*%
X107887500Y-59012500D03*
%TO.P,U1,18,PB0_18*%
%TO.N,unconnected-(U1-PB0-Pad18)*%
X108387500Y-59012500D03*
%TO.P,U1,19,PB1_19*%
%TO.N,unconnected-(U1-PB1-Pad19)*%
X108887500Y-59012500D03*
%TO.P,U1,20,PB2_20*%
%TO.N,unconnected-(U1-PB2-Pad20)*%
X109387500Y-59012500D03*
%TO.P,U1,21,PB10_21*%
%TO.N,/I2C2_SCL*%
X109887500Y-59012500D03*
%TO.P,U1,22,PB11_22*%
%TO.N,/I2C2_SDA*%
X110387500Y-59012500D03*
%TO.P,U1,23,VSS_23*%
%TO.N,GND*%
X110887500Y-59012500D03*
%TO.P,U1,24,VDD_24*%
%TO.N,+3.3V*%
X111387500Y-59012500D03*
D25*
%TO.P,U1,25,PB12_25*%
%TO.N,unconnected-(U1-PB12-Pad25)*%
X112800000Y-57600000D03*
%TO.P,U1,26,PB13_26*%
%TO.N,unconnected-(U1-PB13-Pad26)*%
X112800000Y-57100000D03*
%TO.P,U1,27,PB14_27*%
%TO.N,unconnected-(U1-PB14-Pad27)*%
X112800000Y-56600000D03*
%TO.P,U1,28,PB15_28*%
%TO.N,unconnected-(U1-PB15-Pad28)*%
X112800000Y-56100000D03*
%TO.P,U1,29,PA8_29*%
%TO.N,unconnected-(U1-PA8-Pad29)*%
X112800000Y-55600000D03*
%TO.P,U1,30,PA9_30*%
%TO.N,unconnected-(U1-PA9-Pad30)*%
X112800000Y-55100000D03*
%TO.P,U1,31,PA10_31*%
%TO.N,unconnected-(U1-PA10-Pad31)*%
X112800000Y-54600000D03*
%TO.P,U1,32,PA11_32*%
%TO.N,/USB_D-*%
X112800000Y-54100000D03*
%TO.P,U1,33,PA12_33*%
%TO.N,/USB_D+*%
X112800000Y-53600000D03*
%TO.P,U1,34,PA13_34*%
%TO.N,/SWDIO*%
X112800000Y-53100000D03*
%TO.P,U1,35,VSS_35*%
%TO.N,GND*%
X112800000Y-52600000D03*
%TO.P,U1,36,VDD_36*%
%TO.N,+3.3V*%
X112800000Y-52100000D03*
D26*
%TO.P,U1,37,PA14_37*%
%TO.N,/SWCLK*%
X111387500Y-50687500D03*
%TO.P,U1,38,PA15_38*%
%TO.N,unconnected-(U1-PA15-Pad38)*%
X110887500Y-50687500D03*
%TO.P,U1,39,PB3_39*%
%TO.N,unconnected-(U1-PB3-Pad39)*%
X110387500Y-50687500D03*
%TO.P,U1,40,PB4_40*%
%TO.N,unconnected-(U1-PB4-Pad40)*%
X109887500Y-50687500D03*
%TO.P,U1,41,PB5_41*%
%TO.N,unconnected-(U1-PB5-Pad41)*%
X109387500Y-50687500D03*
%TO.P,U1,42,PB6_42*%
%TO.N,/USART1_TX*%
X108887500Y-50687500D03*
%TO.P,U1,43,PB7_43*%
%TO.N,/USART1_RX*%
X108387500Y-50687500D03*
%TO.P,U1,44,BOOT0_44*%
%TO.N,/BOOT0*%
X107887500Y-50687500D03*
%TO.P,U1,45,PB8_45*%
%TO.N,unconnected-(U1-PB8-Pad45)*%
X107387500Y-50687500D03*
%TO.P,U1,46,PB9_46*%
%TO.N,unconnected-(U1-PB9-Pad46)*%
X106887500Y-50687500D03*
%TO.P,U1,47,VSS_47*%
%TO.N,GND*%
X106387500Y-50687500D03*
%TO.P,U1,48,VDD_48*%
%TO.N,+3.3V*%
X105887500Y-50687500D03*
%TD*%
D27*
%TO.P,R4,1*%
%TO.N,+3.3V*%
X105510000Y-65500000D03*
%TO.P,R4,2*%
%TO.N,/I2C2_SCL*%
X104490000Y-65500000D03*
%TD*%
D14*
%TO.P,J3,1,Pin_1_1*%
%TO.N,+3.3V*%
X102500000Y-68500000D03*
D15*
%TO.P,J3,2,Pin_2_2*%
%TO.N,/I2C2_SCL*%
X105040000Y-68500000D03*
%TO.P,J3,3,Pin_3_3*%
%TO.N,/I2C2_SDA*%
X107580000Y-68500000D03*
%TO.P,J3,4,Pin_4_4*%
%TO.N,GND*%
X110120000Y-68500000D03*
%TD*%
D17*
%TO.P,C4,1*%
%TO.N,+3.3V*%
X101600000Y-52050000D03*
%TO.P,C4,2*%
%TO.N,GND*%
X101600000Y-51090000D03*
%TD*%
D28*
%TO.P,C2,1*%
%TO.N,+3.3V*%
X123000000Y-67500000D03*
%TO.P,C2,2*%
%TO.N,GND*%
X123000000Y-65600000D03*
%TD*%
D29*
%TO.P,C6,1*%
%TO.N,+3.3V*%
X115600000Y-51940000D03*
%TO.P,C6,2*%
%TO.N,GND*%
X115600000Y-52900000D03*
%TD*%
D30*
%TO.P,J1,1,VBUS_1*%
%TO.N,VBUS*%
X126350000Y-53675000D03*
%TO.P,J1,2,D-_2*%
%TO.N,/USB_D-*%
X126350000Y-53025000D03*
%TO.P,J1,3,D+_3*%
%TO.N,/USB_D+*%
X126350000Y-52375000D03*
%TO.P,J1,4,ID_4*%
%TO.N,unconnected-(J1-ID-Pad4)*%
X126350000Y-51725000D03*
%TO.P,J1,5,GND_5*%
%TO.N,GND*%
X126350000Y-51075000D03*
D31*
%TO.P,J1,SH,Shield_6*%
%TO.N,unconnected-(J1-Shield-Pad6)_1*%
X130200000Y-56250000D03*
D32*
%TO.N,unconnected-(J1-Shield-Pad6)_2*%
X126400000Y-56100000D03*
%TO.N,unconnected-(J1-Shield-Pad6)*%
X126400000Y-48650000D03*
D31*
%TO.N,unconnected-(J1-Shield-Pad6)_3*%
X130200000Y-48500000D03*
%TD*%
D16*
%TO.P,C7,1*%
%TO.N,+3.3V*%
X105640000Y-48800000D03*
%TO.P,C7,2*%
%TO.N,GND*%
X106600000Y-48800000D03*
%TD*%
D33*
%TO.P,R1,1*%
%TO.N,/PWR_LED_K*%
X126180000Y-58200000D03*
%TO.P,R1,2*%
%TO.N,GND*%
X127200000Y-58200000D03*
%TD*%
%TO.P,R5,1*%
%TO.N,+3.3V*%
X107000000Y-65500000D03*
%TO.P,R5,2*%
%TO.N,/I2C2_SDA*%
X108020000Y-65500000D03*
%TD*%
D14*
%TO.P,J4,1,Pin_1_1*%
%TO.N,+3.3V*%
X105940000Y-42600000D03*
D15*
%TO.P,J4,2,Pin_2_2*%
%TO.N,/USART1_TX*%
X103400000Y-42600000D03*
%TO.P,J4,3,Pin_3_3*%
%TO.N,/USART1_RX*%
X100860000Y-42600000D03*
%TO.P,J4,4,Pin_4_4*%
%TO.N,GND*%
X98320000Y-42600000D03*
%TD*%
D34*
%TO.N,GND*%
X95900000Y-56200000D03*
X97600000Y-50500000D03*
X106400000Y-52000000D03*
X117000000Y-52900000D03*
%TO.N,+3.3V*%
X103700000Y-66600000D03*
X105900000Y-66600000D03*
X108800000Y-64500000D03*
X107000000Y-64500000D03*
%TO.N,GND*%
X124100000Y-65500000D03*
X120900000Y-64900000D03*
X119900000Y-64900000D03*
X120700000Y-61100000D03*
X120700000Y-60100000D03*
X125000000Y-51100000D03*
X127200000Y-59300000D03*
X100400000Y-53900000D03*
X99500000Y-51200000D03*
X90300000Y-48600000D03*
X100600000Y-62200000D03*
X100600000Y-58900000D03*
X105800000Y-55600000D03*
X106700000Y-61200000D03*
X110900000Y-57700000D03*
X101600000Y-50100000D03*
%TD*%
%TO.N,GND*%
D35*
X95900000Y-54400000D02*
X95900000Y-56200000D01*
X97600000Y-52200000D02*
X97600000Y-50500000D01*
D36*
X106387500Y-51987500D02*
X106400000Y-52000000D01*
X106387500Y-50687500D02*
X106387500Y-51987500D01*
%TO.N,+3.3V*%
X102700000Y-48300000D02*
X103800000Y-47200000D01*
X103800000Y-47200000D02*
X105350000Y-47200000D01*
X102700000Y-50325000D02*
X102700000Y-48300000D01*
X104475000Y-52100000D02*
X102700000Y-50325000D01*
X105887500Y-49800000D02*
X105640000Y-49552500D01*
X105887500Y-50687500D02*
X105887500Y-49800000D01*
X105640000Y-49552500D02*
X105640000Y-48800000D01*
X104475000Y-52100000D02*
X101650000Y-52100000D01*
X101650000Y-52100000D02*
X101600000Y-52050000D01*
%TO.N,+3.3VA*%
X103100000Y-60012500D02*
X101772500Y-60012500D01*
X101772500Y-60012500D02*
X101560000Y-59800000D01*
X101560000Y-56340000D02*
X101600000Y-56300000D01*
X101560000Y-59800000D02*
X101560000Y-56340000D01*
%TO.N,+3.3V*%
D35*
X118520000Y-41620000D02*
X118520000Y-42600000D01*
X118000000Y-41100000D02*
X118520000Y-41620000D01*
X107440000Y-41100000D02*
X118000000Y-41100000D01*
X105940000Y-42600000D02*
X107440000Y-41100000D01*
%TO.N,GND*%
D36*
X115600000Y-52900000D02*
X117000000Y-52900000D01*
%TO.N,/NRST*%
X104640000Y-58775620D02*
X104640000Y-62000000D01*
X107600000Y-55600000D02*
X107600000Y-55815620D01*
X106600000Y-54600000D02*
X107600000Y-55600000D01*
X105880761Y-54600000D02*
X106600000Y-54600000D01*
X107600000Y-55815620D02*
X104640000Y-58775620D01*
X105380761Y-55100000D02*
X105880761Y-54600000D01*
X104475000Y-55100000D02*
X105380761Y-55100000D01*
%TO.N,+3.3V*%
D35*
X118000000Y-69600000D02*
X117700000Y-69900000D01*
X128350000Y-66250000D02*
X124600000Y-70000000D01*
X122286701Y-42600000D02*
X128350000Y-48663299D01*
X128350000Y-48663299D02*
X128350000Y-66250000D01*
X118520000Y-42600000D02*
X122286701Y-42600000D01*
D36*
X93600000Y-48000000D02*
X93600000Y-58045000D01*
X94400000Y-47200000D02*
X93600000Y-48000000D01*
X105350000Y-47200000D02*
X94400000Y-47200000D01*
%TO.N,/PWR_LED_K*%
D35*
X126180000Y-64605000D02*
X126200000Y-64625000D01*
X126180000Y-58200000D02*
X126180000Y-64605000D01*
%TO.N,+3.3V*%
D36*
X119500000Y-51400000D02*
X121100000Y-51400000D01*
X118960000Y-51940000D02*
X119500000Y-51400000D01*
X115600000Y-51940000D02*
X118960000Y-51940000D01*
D35*
X118520000Y-49020000D02*
X115600000Y-51940000D01*
X118520000Y-42600000D02*
X118520000Y-49020000D01*
X102812500Y-61300000D02*
X103100000Y-61587500D01*
X101600000Y-61300000D02*
X102812500Y-61300000D01*
X93600000Y-62900000D02*
X96700000Y-66000000D01*
X93600000Y-58045000D02*
X93600000Y-62900000D01*
X89605000Y-54050000D02*
X93600000Y-58045000D01*
X96700000Y-66000000D02*
X103100000Y-66000000D01*
X103100000Y-66000000D02*
X103700000Y-66600000D01*
X103100000Y-61587500D02*
X103100000Y-66000000D01*
X102500000Y-67400000D02*
X102500000Y-68500000D01*
X103300000Y-66600000D02*
X102500000Y-67400000D01*
X103700000Y-66600000D02*
X103300000Y-66600000D01*
X105520000Y-66100000D02*
X105900000Y-66480000D01*
X105900000Y-66480000D02*
X105900000Y-66600000D01*
X105500000Y-66100000D02*
X105520000Y-66100000D01*
X105510000Y-65500000D02*
X105510000Y-66090000D01*
X105510000Y-66090000D02*
X105500000Y-66100000D01*
X107000000Y-65500000D02*
X105510000Y-65500000D01*
X106700000Y-64800000D02*
X107000000Y-64500000D01*
X106700000Y-65200000D02*
X106700000Y-64800000D01*
X107000000Y-65500000D02*
X106700000Y-65200000D01*
X112300000Y-64500000D02*
X108800000Y-64500000D01*
X112300000Y-64500000D02*
X112300000Y-60900000D01*
X123250997Y-71349003D02*
X113547631Y-71347631D01*
X124600000Y-67700000D02*
X124600000Y-70000000D01*
X113547631Y-71347631D02*
X112300000Y-70100000D01*
X112300000Y-70100000D02*
X112300000Y-64500000D01*
X124400000Y-67500000D02*
X124600000Y-67700000D01*
X124600000Y-70000000D02*
X123250997Y-71349003D01*
X124400000Y-67500000D02*
X124900000Y-67500000D01*
X123000000Y-67500000D02*
X124400000Y-67500000D01*
X124900000Y-67500000D02*
X126200000Y-66200000D01*
%TO.N,GND*%
D36*
X125025000Y-51075000D02*
X125000000Y-51100000D01*
X126350000Y-51075000D02*
X125025000Y-51075000D01*
D35*
X127200000Y-58200000D02*
X127200000Y-59300000D01*
X100000000Y-54300000D02*
X100400000Y-53900000D01*
X99500000Y-54300000D02*
X100000000Y-54300000D01*
X99500000Y-52070000D02*
X99500000Y-51200000D01*
X90300000Y-49200000D02*
X90300000Y-48600000D01*
X89950000Y-49550000D02*
X90300000Y-49200000D01*
X89605000Y-49550000D02*
X89950000Y-49550000D01*
X100640000Y-62160000D02*
X100600000Y-62200000D01*
X100640000Y-61300000D02*
X100640000Y-62160000D01*
X100600000Y-59800000D02*
X100600000Y-58900000D01*
D36*
X104475000Y-55600000D02*
X105800000Y-55600000D01*
D35*
X105900000Y-62000000D02*
X106700000Y-61200000D01*
X105600000Y-62000000D02*
X105900000Y-62000000D01*
D36*
X110887500Y-57712500D02*
X110900000Y-57700000D01*
X110887500Y-59012500D02*
X110887500Y-57712500D01*
D35*
X101600000Y-51090000D02*
X101600000Y-50100000D01*
%TO.N,/I2C2_SCL*%
D36*
X105040000Y-67140000D02*
X105040000Y-68500000D01*
X104490000Y-66590000D02*
X105040000Y-67140000D01*
X104490000Y-65500000D02*
X104490000Y-66590000D01*
X109887500Y-60512500D02*
X109887500Y-59012500D01*
X109400000Y-61000000D02*
X109887500Y-60512500D01*
X108100000Y-61000000D02*
X109400000Y-61000000D01*
X104490000Y-65500000D02*
X104490000Y-64610000D01*
X104490000Y-64610000D02*
X108100000Y-61000000D01*
%TO.N,/I2C2_SDA*%
X107580000Y-66720000D02*
X107580000Y-68500000D01*
X108020000Y-65500000D02*
X108020000Y-66280000D01*
X108020000Y-66280000D02*
X107580000Y-66720000D01*
X108020000Y-63420000D02*
X108020000Y-65500000D01*
X108000000Y-63400000D02*
X108020000Y-63420000D01*
X110387500Y-61012500D02*
X108000000Y-63400000D01*
X110387500Y-59012500D02*
X110387500Y-61012500D01*
%TO.N,+3.3V*%
X112300000Y-60558514D02*
X112300000Y-60900000D01*
X111387500Y-59646014D02*
X112300000Y-60558514D01*
X111387500Y-59012500D02*
X111387500Y-59646014D01*
%TO.N,GND*%
X111340000Y-60305620D02*
X111340000Y-60900000D01*
X110887500Y-59853120D02*
X111340000Y-60305620D01*
X110887500Y-59012500D02*
X110887500Y-59853120D01*
%TO.N,/SW_BOOT0*%
X90950000Y-52550000D02*
X89605000Y-52550000D01*
X91300000Y-52200000D02*
X90950000Y-52550000D01*
X91700000Y-52200000D02*
X91300000Y-52200000D01*
%TO.N,/BOOT0*%
X91700000Y-47900000D02*
X91700000Y-51180000D01*
X94200000Y-45400000D02*
X91700000Y-47900000D01*
X107385788Y-45400000D02*
X94200000Y-45400000D01*
X107887500Y-45901712D02*
X107385788Y-45400000D01*
X107887500Y-50687500D02*
X107887500Y-45901712D01*
%TO.N,/SWDIO*%
X115980000Y-47435620D02*
X115980000Y-42600000D01*
X111640620Y-52781240D02*
X111640620Y-51775000D01*
X111640620Y-51775000D02*
X115980000Y-47435620D01*
X111959380Y-53100000D02*
X111640620Y-52781240D01*
X112800000Y-53100000D02*
X111959380Y-53100000D01*
%TO.N,/SWCLK*%
X113440000Y-46260000D02*
X113440000Y-42600000D01*
X111387500Y-48312500D02*
X113440000Y-46260000D01*
X111387500Y-50687500D02*
X111387500Y-48312500D01*
%TO.N,/USB_D-*%
D37*
X125374999Y-53025000D02*
X126350000Y-53025000D01*
X125274999Y-52925000D02*
X125374999Y-53025000D01*
X121613924Y-52925000D02*
X125274999Y-52925000D01*
X121468924Y-53070000D02*
X121613924Y-52925000D01*
X120731076Y-53070000D02*
X121468924Y-53070000D01*
X120586076Y-52925000D02*
X120731076Y-53070000D01*
X119593198Y-52925000D02*
X120586076Y-52925000D01*
X118443198Y-54075000D02*
X119593198Y-52925000D01*
X113906251Y-54100000D02*
X113931251Y-54075000D01*
X112800000Y-54100000D02*
X113906251Y-54100000D01*
%TO.N,/USB_D+*%
X125374999Y-52375000D02*
X126350000Y-52375000D01*
%TO.N,/USB_D-*%
X113931251Y-54075000D02*
X118443198Y-54075000D01*
%TO.N,/USB_D+*%
X125274999Y-52475000D02*
X125374999Y-52375000D01*
X119406802Y-52475000D02*
X125274999Y-52475000D01*
X118256802Y-53625000D02*
X119406802Y-52475000D01*
X113931251Y-53625000D02*
X118256802Y-53625000D01*
X113906251Y-53600000D02*
X113931251Y-53625000D01*
X112800000Y-53600000D02*
X113906251Y-53600000D01*
%TO.N,/HSE_IN*%
D36*
X99280000Y-53250000D02*
X96950000Y-53250000D01*
X96950000Y-53250000D02*
X95900000Y-52200000D01*
X99500000Y-53030000D02*
X99280000Y-53250000D01*
X102070000Y-53030000D02*
X99500000Y-53030000D01*
X102100000Y-53000000D02*
X102070000Y-53030000D01*
X103200000Y-54100000D02*
X102100000Y-53000000D01*
X104475000Y-54100000D02*
X103200000Y-54100000D01*
%TO.N,/HSE_OUT*%
X98460000Y-55260000D02*
X97600000Y-54400000D01*
X99500000Y-55260000D02*
X98460000Y-55260000D01*
X100240000Y-55260000D02*
X99500000Y-55260000D01*
X100900000Y-54600000D02*
X100240000Y-55260000D01*
X104475000Y-54600000D02*
X100900000Y-54600000D01*
%TO.N,GND*%
X114100000Y-52900000D02*
X115600000Y-52900000D01*
X112800000Y-52600000D02*
X113800000Y-52600000D01*
X113800000Y-52600000D02*
X114100000Y-52900000D01*
%TO.N,+3.3V*%
X114060000Y-51940000D02*
X115600000Y-51940000D01*
X112800000Y-52100000D02*
X113900000Y-52100000D01*
X113900000Y-52100000D02*
X114060000Y-51940000D01*
%TO.N,GND*%
X103340000Y-55340000D02*
X101600000Y-55340000D01*
X104475000Y-55600000D02*
X103600000Y-55600000D01*
X103600000Y-55600000D02*
X103340000Y-55340000D01*
%TO.N,+3.3VA*%
X103200000Y-56300000D02*
X101600000Y-56300000D01*
X104475000Y-56100000D02*
X103400000Y-56100000D01*
X103400000Y-56100000D02*
X103200000Y-56300000D01*
%TO.N,GND*%
X106900000Y-48100000D02*
X106900000Y-47200000D01*
X106600000Y-48800000D02*
X106600000Y-48400000D01*
X106600000Y-48400000D02*
X106900000Y-48100000D01*
%TO.N,+3.3V*%
X105640000Y-48440000D02*
X105350000Y-48150000D01*
X105640000Y-48800000D02*
X105640000Y-48440000D01*
X105350000Y-48150000D02*
X105350000Y-47200000D01*
%TO.N,GND*%
X106600000Y-49634380D02*
X106600000Y-48800000D01*
X106387500Y-49846880D02*
X106600000Y-49634380D01*
X106387500Y-50687500D02*
X106387500Y-49846880D01*
%TO.N,/USART1_RX*%
X108387500Y-50687500D02*
X108387500Y-45694606D01*
X108387500Y-45694606D02*
X107492894Y-44800000D01*
X107492894Y-44800000D02*
X101800000Y-44800000D01*
X101800000Y-44800000D02*
X100860000Y-43860000D01*
X100860000Y-43860000D02*
X100860000Y-42600000D01*
%TO.N,/USART1_TX*%
X103700000Y-44300000D02*
X103400000Y-44000000D01*
X107700000Y-44300000D02*
X103700000Y-44300000D01*
X103400000Y-44000000D02*
X103400000Y-42600000D01*
X108887500Y-45487500D02*
X107700000Y-44300000D01*
X108887500Y-50687500D02*
X108887500Y-45487500D01*
%TD*%
%TA.AperFunction,Conductor*%
%TO.N,GND*%
G36*
X121193106Y-59605023D02*
G01*
X121208104Y-59609427D01*
X121223094Y-59619057D01*
X121240175Y-59624067D01*
X121266855Y-59647172D01*
X121268042Y-59648541D01*
X121295518Y-59703402D01*
X121297163Y-59710960D01*
X121300000Y-59737331D01*
X121300000Y-63600000D01*
X122100000Y-64900000D01*
X123948798Y-64900000D01*
X123981897Y-64904498D01*
X124013211Y-64913172D01*
X124043907Y-64926344D01*
X124424507Y-65154704D01*
X124451877Y-65176982D01*
X124465011Y-65191228D01*
X124494588Y-65247052D01*
X124496745Y-65256282D01*
X124500000Y-65284502D01*
X124500000Y-65930808D01*
X124499999Y-65930810D01*
X124500000Y-65930811D01*
X124494976Y-65965745D01*
X124487564Y-65990986D01*
X124456269Y-66043730D01*
X124248926Y-66251073D01*
X124220675Y-66272222D01*
X124197587Y-66284830D01*
X124138157Y-66300000D01*
X119769192Y-66300000D01*
X119769191Y-66299999D01*
X119769191Y-66300000D01*
X119734256Y-66294977D01*
X119709014Y-66287565D01*
X119656269Y-66256269D01*
X119429518Y-66029518D01*
X119396033Y-65968195D01*
X119393230Y-65944598D01*
X119308399Y-62127092D01*
X119306137Y-62096164D01*
X119303033Y-62071213D01*
X119302856Y-62070210D01*
X119301884Y-62064694D01*
X119300000Y-62043163D01*
X119300000Y-61899999D01*
X119245639Y-61878255D01*
X119215058Y-61860609D01*
X119204129Y-61852018D01*
X119202105Y-61849007D01*
X119200439Y-61847085D01*
X119169614Y-61816270D01*
X119142937Y-61793162D01*
X119129026Y-61781811D01*
X119090759Y-61762360D01*
X119090964Y-61762042D01*
X119075970Y-61752408D01*
X119075966Y-61752406D01*
X118996905Y-61716304D01*
X118996892Y-61716300D01*
X118981919Y-61711902D01*
X118981888Y-61711894D01*
X118939317Y-61702634D01*
X118904372Y-61697610D01*
X118904374Y-61697610D01*
X118860895Y-61694500D01*
X118810130Y-61694500D01*
X118764078Y-61685631D01*
X118394501Y-61537800D01*
X118363931Y-61520163D01*
X118351641Y-61510504D01*
X118311096Y-61453603D01*
X118306830Y-61441289D01*
X118300000Y-61400703D01*
X118300000Y-59741829D01*
X118305023Y-59706893D01*
X118309427Y-59691895D01*
X118319057Y-59676904D01*
X118324067Y-59659824D01*
X118347172Y-59633144D01*
X118348541Y-59631957D01*
X118403420Y-59604477D01*
X118410979Y-59602833D01*
X118437332Y-59600000D01*
X121158170Y-59600000D01*
X121193106Y-59605023D01*
G37*
%TD.AperFunction*%
%TD*%
%TA.AperFunction,Conductor*%
%TO.N,+3.3V*%
G36*
X118895831Y-62005023D02*
G01*
X118910829Y-62009427D01*
X118925823Y-62019061D01*
X118942915Y-62024077D01*
X118969592Y-62047185D01*
X118971258Y-62049107D01*
X118998424Y-62102620D01*
X118999870Y-62108928D01*
X119002974Y-62133879D01*
X119099998Y-66499994D01*
X119099998Y-66499998D01*
X119100000Y-66500000D01*
X119699999Y-66900000D01*
X119700000Y-66900000D01*
X123630808Y-66900000D01*
X123665740Y-66905021D01*
X123690984Y-66912434D01*
X123743730Y-66943730D01*
X123951073Y-67151073D01*
X123972223Y-67179325D01*
X123984831Y-67202414D01*
X124000000Y-67261843D01*
X124000000Y-70656629D01*
X123999999Y-70656635D01*
X124000000Y-70656638D01*
X123994975Y-70691571D01*
X123993853Y-70695390D01*
X123990570Y-70706571D01*
X123952837Y-70765306D01*
X123951775Y-70766227D01*
X123896137Y-70793876D01*
X123887887Y-70795617D01*
X123860752Y-70798280D01*
X116040296Y-70701731D01*
X116040295Y-70701730D01*
X116040295Y-70701731D01*
X116005424Y-70696276D01*
X115990481Y-70691687D01*
X115932186Y-70653203D01*
X115930754Y-70651509D01*
X115904123Y-70597054D01*
X115902670Y-70590169D01*
X115900000Y-70564574D01*
X115900000Y-66166311D01*
X115905022Y-66131379D01*
X115912701Y-66105227D01*
X115940558Y-66056060D01*
X117100000Y-64800000D01*
X117100000Y-62175635D01*
X117119685Y-62108596D01*
X117157428Y-62071021D01*
X117191865Y-62049107D01*
X117238569Y-62019385D01*
X117305141Y-62000000D01*
X118860895Y-62000000D01*
X118895831Y-62005023D01*
G37*
%TD.AperFunction*%
%TD*%
%TA.AperFunction,Conductor*%
%TO.N,VBUS*%
G36*
X125123255Y-53342113D02*
G01*
X125129084Y-53345478D01*
X125129086Y-53345480D01*
X125220412Y-53398207D01*
X125322272Y-53425500D01*
X125427726Y-53425500D01*
X125465067Y-53425500D01*
X125532106Y-53445185D01*
X125552748Y-53461819D01*
X125566713Y-53475784D01*
X125566716Y-53475786D01*
X125566719Y-53475789D01*
X125683285Y-53535182D01*
X125683286Y-53535182D01*
X125683288Y-53535183D01*
X125683287Y-53535183D01*
X125726618Y-53542045D01*
X125779997Y-53550500D01*
X126920002Y-53550499D01*
X126920007Y-53550499D01*
X126920007Y-53550498D01*
X127016715Y-53535182D01*
X127019700Y-53533660D01*
X127023724Y-53532904D01*
X127025999Y-53532166D01*
X127026094Y-53532459D01*
X127088369Y-53520761D01*
X127153110Y-53547035D01*
X127193370Y-53604139D01*
X127200000Y-53644143D01*
X127200000Y-53976000D01*
X127180315Y-54043039D01*
X127127511Y-54088794D01*
X127076000Y-54100000D01*
X123099999Y-54100000D01*
X120200754Y-55599609D01*
X120199241Y-55600379D01*
X117800000Y-56799999D01*
X117800000Y-61231930D01*
X117780315Y-61298969D01*
X117742573Y-61336544D01*
X116700000Y-62000000D01*
X116700000Y-64276000D01*
X116680315Y-64343039D01*
X116627511Y-64388794D01*
X116576000Y-64400000D01*
X114924000Y-64400000D01*
X114856961Y-64380315D01*
X114811206Y-64327511D01*
X114800000Y-64276000D01*
X114800000Y-62285932D01*
X114819685Y-62218893D01*
X114872489Y-62173138D01*
X114880461Y-62169827D01*
X115333333Y-62000000D01*
X116400000Y-61600000D01*
X116400000Y-56677149D01*
X116419685Y-56610110D01*
X116469208Y-56565912D01*
X123022319Y-53338260D01*
X123077107Y-53325500D01*
X125061255Y-53325500D01*
X125123255Y-53342113D01*
G37*
%TD.AperFunction*%
%TD*%
M02*
