M48
; DRILL file KiCad 10.0.1 date 2026-05-19T18:16:15
; FORMAT={-:-/ absolute / metric / decimal}
; #@! TF.CreationDate,2026-05-19T18:16:15+05:00
; #@! TF.GenerationSoftware,Kicad,Pcbnew,10.0.1
; #@! TF.FileFunction,Plated,1,2,PTH
FMAT,2
METRIC
; #@! TA.AperFunction,Plated,PTH,ViaDrill
T1C0.300
; #@! TA.AperFunction,Plated,PTH,ComponentDrill
T2C0.550
; #@! TA.AperFunction,Plated,PTH,ComponentDrill
T3C0.850
; #@! TA.AperFunction,Plated,PTH,ComponentDrill
T4C1.000
%
G90
G05
T1
X90.3Y-48.6
X95.9Y-56.2
X97.6Y-50.5
X99.5Y-51.2
X100.4Y-53.9
X100.6Y-58.9
X100.6Y-62.2
X101.6Y-50.1
X103.7Y-66.6
X105.8Y-55.6
X105.9Y-66.6
X106.4Y-52.0
X106.7Y-61.2
X107.0Y-64.5
X108.8Y-64.5
X110.9Y-57.7
X117.0Y-52.9
X119.9Y-64.9
X120.7Y-60.1
X120.7Y-61.1
X120.9Y-64.9
X124.1Y-65.5
X125.0Y-51.1
X127.2Y-59.3
T4
X98.32Y-42.6
X100.86Y-42.6
X102.5Y-68.5
X103.4Y-42.6
X105.04Y-68.5
X105.94Y-42.6
X107.58Y-68.5
X110.12Y-68.5
X110.9Y-42.6
X113.44Y-42.6
X115.98Y-42.6
X118.52Y-42.6
T2
G00X129.875Y-48.5
M15
G01X130.525Y-48.5
M16
G05
G00X129.875Y-56.25
M15
G01X130.525Y-56.25
M16
G05
T3
G00X126.125Y-48.65
M15
G01X126.675Y-48.65
M16
G05
G00X126.125Y-56.1
M15
G01X126.675Y-56.1
M16
G05
M30
