%TF.GenerationSoftware,KiCad,Pcbnew,10.0.1*%
%TF.CreationDate,2026-05-19T18:15:15+05:00*%
%TF.ProjectId,STM32,53544d33-322e-46b6-9963-61645f706362,rev?*%
%TF.SameCoordinates,Original*%
%TF.FileFunction,Soldermask,Top*%
%TF.FilePolarity,Negative*%
%FSLAX46Y46*%
G04 Gerber Fmt 4.6, Leading zero omitted, Abs format (unit mm)*
G04 Created by KiCad (PCBNEW 10.0.1) date 2026-05-19 18:15:15*
%MOMM*%
%LPD*%
G01*
G04 APERTURE LIST*
G04 Aperture macros list*
%AMRoundRect*
0 Rectangle with rounded corners*
0 $1 Rounding radius*
0 $2 $3 $4 $5 $6 $7 $8 $9 X,Y pos of 4 corners*
0 Add a 4 corners polygon primitive as box body*
4,1,4,$2,$3,$4,$5,$6,$7,$8,$9,$2,$3,0*
0 Add four circle primitives for the rounded corners*
1,1,$1+$1,$2,$3*
1,1,$1+$1,$4,$5*
1,1,$1+$1,$6,$7*
1,1,$1+$1,$8,$9*
0 Add four rect primitives between the rounded corners*
20,1,$1+$1,$2,$3,$4,$5,0*
20,1,$1+$1,$4,$5,$6,$7,0*
20,1,$1+$1,$6,$7,$8,$9,0*
20,1,$1+$1,$8,$9,$2,$3,0*%
G04 Aperture macros list end*
%ADD10R,0.800000X1.000000*%
%ADD11C,0.900000*%
%ADD12R,1.500000X0.700000*%
%ADD13RoundRect,0.140000X0.140000X0.170000X-0.140000X0.170000X-0.140000X-0.170000X0.140000X-0.170000X0*%
%ADD14RoundRect,0.135000X-0.185000X0.135000X-0.185000X-0.135000X0.185000X-0.135000X0.185000X0.135000X0*%
%ADD15C,2.200000*%
%ADD16R,1.700000X1.700000*%
%ADD17C,1.700000*%
%ADD18RoundRect,0.140000X-0.140000X-0.170000X0.140000X-0.170000X0.140000X0.170000X-0.140000X0.170000X0*%
%ADD19RoundRect,0.140000X0.170000X-0.140000X0.170000X0.140000X-0.170000X0.140000X-0.170000X-0.140000X0*%
%ADD20RoundRect,0.135000X0.185000X-0.135000X0.185000X0.135000X-0.185000X0.135000X-0.185000X-0.135000X0*%
%ADD21RoundRect,0.375000X-0.375000X0.625000X-0.375000X-0.625000X0.375000X-0.625000X0.375000X0.625000X0*%
%ADD22RoundRect,0.500000X-1.400000X0.500000X-1.400000X-0.500000X1.400000X-0.500000X1.400000X0.500000X0*%
%ADD23RoundRect,0.225000X-0.225000X-0.250000X0.225000X-0.250000X0.225000X0.250000X-0.225000X0.250000X0*%
%ADD24RoundRect,0.250000X-0.250000X-0.475000X0.250000X-0.475000X0.250000X0.475000X-0.250000X0.475000X0*%
%ADD25RoundRect,0.218750X-0.256250X0.218750X-0.256250X-0.218750X0.256250X-0.218750X0.256250X0.218750X0*%
%ADD26RoundRect,0.250000X-0.350000X0.450000X-0.350000X-0.450000X0.350000X-0.450000X0.350000X0.450000X0*%
%ADD27RoundRect,0.075000X-0.662500X-0.075000X0.662500X-0.075000X0.662500X0.075000X-0.662500X0.075000X0*%
%ADD28RoundRect,0.075000X-0.075000X-0.662500X0.075000X-0.662500X0.075000X0.662500X-0.075000X0.662500X0*%
%ADD29RoundRect,0.135000X0.135000X0.185000X-0.135000X0.185000X-0.135000X-0.185000X0.135000X-0.185000X0*%
%ADD30RoundRect,0.250000X0.475000X-0.250000X0.475000X0.250000X-0.475000X0.250000X-0.475000X-0.250000X0*%
%ADD31RoundRect,0.140000X-0.170000X0.140000X-0.170000X-0.140000X0.170000X-0.140000X0.170000X0.140000X0*%
%ADD32O,0.800000X0.800000*%
%ADD33RoundRect,0.112500X0.537500X-0.112500X0.537500X0.112500X-0.537500X0.112500X-0.537500X-0.112500X0*%
%ADD34O,1.800000X1.150000*%
%ADD35O,2.000000X1.450000*%
%ADD36RoundRect,0.135000X-0.135000X-0.185000X0.135000X-0.185000X0.135000X0.185000X-0.135000X0.185000X0*%
G04 APERTURE END LIST*
D10*
%TO.C,SW1*%
X88955000Y-48150000D03*
X86745000Y-48150000D03*
D11*
X87845000Y-50300000D03*
X87845000Y-53300000D03*
D10*
X88955000Y-55450000D03*
X86745000Y-55450000D03*
D12*
X89605000Y-49550000D03*
X89605000Y-52550000D03*
X89605000Y-54050000D03*
%TD*%
D13*
%TO.C,C9*%
X101560000Y-59800000D03*
X100600000Y-59800000D03*
%TD*%
D14*
%TO.C,R3*%
X121100000Y-51400000D03*
X121100000Y-52420000D03*
%TD*%
D15*
%TO.C,H3*%
X129500000Y-42950000D03*
%TD*%
D16*
%TO.C,J2*%
X118520000Y-42600000D03*
D17*
X115980000Y-42600000D03*
X113440000Y-42600000D03*
X110900000Y-42600000D03*
%TD*%
D18*
%TO.C,C11*%
X104640000Y-62000000D03*
X105600000Y-62000000D03*
%TD*%
D19*
%TO.C,C13*%
X99500000Y-55260000D03*
X99500000Y-54300000D03*
%TD*%
%TO.C,C12*%
X99500000Y-53030000D03*
X99500000Y-52070000D03*
%TD*%
D13*
%TO.C,C5*%
X112300000Y-60900000D03*
X111340000Y-60900000D03*
%TD*%
D15*
%TO.C,H4*%
X129500000Y-68600000D03*
%TD*%
D20*
%TO.C,R2*%
X91700000Y-52200000D03*
X91700000Y-51180000D03*
%TD*%
D21*
%TO.C,U2*%
X120300000Y-63200000D03*
X118000000Y-63200000D03*
D22*
X118000000Y-69500000D03*
D21*
X115700000Y-63200000D03*
%TD*%
D23*
%TO.C,C3*%
X105350000Y-47200000D03*
X106900000Y-47200000D03*
%TD*%
D24*
%TO.C,C1*%
X117100000Y-60600000D03*
X119000000Y-60600000D03*
%TD*%
D25*
%TO.C,D1*%
X126200000Y-64625000D03*
X126200000Y-66200000D03*
%TD*%
%TO.C,FB1*%
X103100000Y-60012500D03*
X103100000Y-61587500D03*
%TD*%
D15*
%TO.C,H1*%
X88750000Y-68600000D03*
%TD*%
D26*
%TO.C,Y1*%
X95900000Y-52200000D03*
X95900000Y-54400000D03*
X97600000Y-54400000D03*
X97600000Y-52200000D03*
%TD*%
D13*
%TO.C,C10*%
X101600000Y-61300000D03*
X100640000Y-61300000D03*
%TD*%
D19*
%TO.C,C8*%
X101600000Y-56300000D03*
X101600000Y-55340000D03*
%TD*%
D27*
%TO.C,U1*%
X104475000Y-52100000D03*
X104475000Y-52600000D03*
X104475000Y-53100000D03*
X104475000Y-53600000D03*
X104475000Y-54100000D03*
X104475000Y-54600000D03*
X104475000Y-55100000D03*
X104475000Y-55600000D03*
X104475000Y-56100000D03*
X104475000Y-56600000D03*
X104475000Y-57100000D03*
X104475000Y-57600000D03*
D28*
X105887500Y-59012500D03*
X106387500Y-59012500D03*
X106887500Y-59012500D03*
X107387500Y-59012500D03*
X107887500Y-59012500D03*
X108387500Y-59012500D03*
X108887500Y-59012500D03*
X109387500Y-59012500D03*
X109887500Y-59012500D03*
X110387500Y-59012500D03*
X110887500Y-59012500D03*
X111387500Y-59012500D03*
D27*
X112800000Y-57600000D03*
X112800000Y-57100000D03*
X112800000Y-56600000D03*
X112800000Y-56100000D03*
X112800000Y-55600000D03*
X112800000Y-55100000D03*
X112800000Y-54600000D03*
X112800000Y-54100000D03*
X112800000Y-53600000D03*
X112800000Y-53100000D03*
X112800000Y-52600000D03*
X112800000Y-52100000D03*
D28*
X111387500Y-50687500D03*
X110887500Y-50687500D03*
X110387500Y-50687500D03*
X109887500Y-50687500D03*
X109387500Y-50687500D03*
X108887500Y-50687500D03*
X108387500Y-50687500D03*
X107887500Y-50687500D03*
X107387500Y-50687500D03*
X106887500Y-50687500D03*
X106387500Y-50687500D03*
X105887500Y-50687500D03*
%TD*%
D29*
%TO.C,R4*%
X105510000Y-65500000D03*
X104490000Y-65500000D03*
%TD*%
D15*
%TO.C,H2*%
X88750000Y-42950000D03*
%TD*%
D16*
%TO.C,J3*%
X102500000Y-68500000D03*
D17*
X105040000Y-68500000D03*
X107580000Y-68500000D03*
X110120000Y-68500000D03*
%TD*%
D19*
%TO.C,C4*%
X101600000Y-52050000D03*
X101600000Y-51090000D03*
%TD*%
D30*
%TO.C,C2*%
X123000000Y-67500000D03*
X123000000Y-65600000D03*
%TD*%
D31*
%TO.C,C6*%
X115600000Y-51940000D03*
X115600000Y-52900000D03*
%TD*%
D32*
%TO.C,J1*%
X127450000Y-54875000D03*
X127450000Y-49875000D03*
D33*
X126350000Y-53675000D03*
X126350000Y-53025000D03*
X126350000Y-52375000D03*
X126350000Y-51725000D03*
X126350000Y-51075000D03*
D34*
X130200000Y-56250000D03*
D35*
X126400000Y-56100000D03*
X126400000Y-48650000D03*
D34*
X130200000Y-48500000D03*
%TD*%
D18*
%TO.C,C7*%
X105640000Y-48800000D03*
X106600000Y-48800000D03*
%TD*%
D36*
%TO.C,R1*%
X126180000Y-58200000D03*
X127200000Y-58200000D03*
%TD*%
%TO.C,R5*%
X107000000Y-65500000D03*
X108020000Y-65500000D03*
%TD*%
D16*
%TO.C,J4*%
X105940000Y-42600000D03*
D17*
X103400000Y-42600000D03*
X100860000Y-42600000D03*
X98320000Y-42600000D03*
%TD*%
M02*
